<mxfile host="65bd71144e">
    <diagram id="YSpJGRRMtqMl2f0E4aVC" name="Page-1">
        <mxGraphModel dx="2959" dy="1638" grid="1" gridSize="10" guides="1" tooltips="1" connect="1" arrows="1" fold="1" page="1" pageScale="1" pageWidth="850" pageHeight="1100" math="0" shadow="0">
            <root>
                <mxCell id="0"/>
                <mxCell id="1" parent="0"/>
                <mxCell id="2" value="" style="whiteSpace=wrap;html=1;fillColor=#1ba1e2;fontColor=#ffffff;strokeColor=#006EAF;" parent="1" vertex="1">
                    <mxGeometry x="-790" y="130" width="1510" height="160" as="geometry"/>
                </mxCell>
                <mxCell id="4" value="" style="whiteSpace=wrap;html=1;fillColor=#0050ef;fontColor=#ffffff;strokeColor=#001DBC;" parent="1" vertex="1">
                    <mxGeometry x="-200" y="140" width="320" height="140" as="geometry"/>
                </mxCell>
                <mxCell id="5" value="" style="whiteSpace=wrap;html=1;fillColor=#0050ef;fontColor=#ffffff;strokeColor=#001DBC;" parent="1" vertex="1">
                    <mxGeometry x="270" y="140" width="430" height="140" as="geometry"/>
                </mxCell>
                <mxCell id="8" value="&lt;font size=&quot;1&quot; style=&quot;&quot;&gt;&lt;b style=&quot;font-size: 33px;&quot;&gt;Rev&lt;/b&gt;&lt;/font&gt;" style="whiteSpace=wrap;html=1;fillColor=#6a00ff;fontColor=#ffffff;strokeColor=#3700CC;" parent="1" vertex="1">
                    <mxGeometry x="-190" y="150" width="300" height="120" as="geometry"/>
                </mxCell>
                <mxCell id="9" value="&lt;b&gt;&lt;font style=&quot;font-size: 33px;&quot;&gt;out.txt&lt;/font&gt;&lt;/b&gt;" style="whiteSpace=wrap;html=1;fillColor=#6a00ff;fontColor=#ffffff;strokeColor=#3700CC;" parent="1" vertex="1">
                    <mxGeometry x="550" y="150" width="140" height="120" as="geometry"/>
                </mxCell>
                <mxCell id="10" value="&lt;font style=&quot;font-size: 33px;&quot;&gt;Grep x&lt;/font&gt;" style="whiteSpace=wrap;html=1;fillColor=#6a00ff;fontColor=#ffffff;strokeColor=#3700CC;" parent="1" vertex="1">
                    <mxGeometry x="280" y="150" width="150" height="120" as="geometry"/>
                </mxCell>
                <mxCell id="12" value="" style="group" parent="1" vertex="1" connectable="0">
                    <mxGeometry x="-510" y="140" width="320" height="140" as="geometry"/>
                </mxCell>
                <mxCell id="3" value="" style="whiteSpace=wrap;html=1;fillColor=#0050ef;fontColor=#ffffff;strokeColor=#001DBC;" parent="12" vertex="1">
                    <mxGeometry x="-260" width="460" height="140" as="geometry"/>
                </mxCell>
                <mxCell id="7" value="&lt;b&gt;&lt;font style=&quot;font-size: 33px;&quot;&gt;&amp;nbsp;text.txt&lt;/font&gt;&lt;/b&gt;" style="whiteSpace=wrap;html=1;fillColor=#6a00ff;fontColor=#ffffff;strokeColor=#3700CC;" parent="12" vertex="1">
                    <mxGeometry x="50" y="10" width="140" height="120" as="geometry"/>
                </mxCell>
                <mxCell id="17" value="&lt;b&gt;&lt;font style=&quot;font-size: 33px;&quot;&gt;&amp;lt;&lt;/font&gt;&lt;/b&gt;" style="whiteSpace=wrap;html=1;fillColor=#60a917;fontColor=#ffffff;strokeColor=#2D7600;" parent="12" vertex="1">
                    <mxGeometry x="-50" y="30" width="70" height="80" as="geometry"/>
                </mxCell>
                <mxCell id="14" value="&lt;b&gt;&lt;font style=&quot;font-size: 60px;&quot;&gt;|&lt;/font&gt;&lt;/b&gt;" style="whiteSpace=wrap;html=1;fillColor=#d80073;fontColor=#ffffff;strokeColor=#A50040;" parent="1" vertex="1">
                    <mxGeometry x="-290" y="145" width="70" height="130" as="geometry"/>
                </mxCell>
                <mxCell id="15" value="&lt;b&gt;&lt;font style=&quot;font-size: 60px;&quot;&gt;|&lt;/font&gt;&lt;/b&gt;" style="whiteSpace=wrap;html=1;fillColor=#d80073;fontColor=#ffffff;strokeColor=#A50040;" parent="1" vertex="1">
                    <mxGeometry x="170" y="150" width="70" height="130" as="geometry"/>
                </mxCell>
                <mxCell id="16" value="&lt;b&gt;&lt;font style=&quot;font-size: 33px;&quot;&gt;&amp;gt;&amp;gt;&lt;/font&gt;&lt;/b&gt;" style="whiteSpace=wrap;html=1;fillColor=#60a917;fontColor=#ffffff;strokeColor=#2D7600;" parent="1" vertex="1">
                    <mxGeometry x="450" y="170" width="70" height="80" as="geometry"/>
                </mxCell>
                <mxCell id="6" value="&lt;b&gt;&lt;font style=&quot;font-size: 34px;&quot;&gt;Cat&lt;/font&gt;&lt;/b&gt;" style="whiteSpace=wrap;html=1;fillColor=#6a00ff;fontColor=#ffffff;strokeColor=#3700CC;" parent="1" vertex="1">
                    <mxGeometry x="-750" y="150" width="140" height="120" as="geometry"/>
                </mxCell>
                <mxCell id="18" value="&lt;font style=&quot;font-size: 35px;&quot;&gt;Décomposition de l'execution&lt;/font&gt;" style="text;strokeColor=none;align=center;fillColor=none;html=1;verticalAlign=middle;whiteSpace=wrap;rounded=0;fontSize=60;" parent="1" vertex="1">
                    <mxGeometry x="-790" y="80" width="1500" height="30" as="geometry"/>
                </mxCell>
                <mxCell id="20" style="edgeStyle=none;html=1;fontSize=35;fillColor=#f5f5f5;strokeColor=#FFFFFF;strokeWidth=5;exitX=0.381;exitY=-0.152;exitDx=0;exitDy=0;exitPerimeter=0;" parent="1" source="19" target="17" edge="1">
                    <mxGeometry relative="1" as="geometry"/>
                </mxCell>
                <mxCell id="19" value="2: Effectuer les redirections dans chaque sous partie" style="text;strokeColor=none;align=left;fillColor=none;html=1;verticalAlign=middle;whiteSpace=wrap;rounded=0;fontSize=35;" parent="1" vertex="1">
                    <mxGeometry x="-750" y="510" width="900" height="30" as="geometry"/>
                </mxCell>
                <mxCell id="23" style="edgeStyle=none;html=1;strokeColor=#FFFFFF;strokeWidth=5;fontSize=35;exitX=0.5;exitY=0;exitDx=0;exitDy=0;" parent="1" source="22" target="14" edge="1">
                    <mxGeometry relative="1" as="geometry"/>
                </mxCell>
                <mxCell id="22" value="1: Découper la ligne a chaque pipe" style="text;strokeColor=none;align=left;fillColor=none;html=1;verticalAlign=middle;whiteSpace=wrap;rounded=0;fontSize=35;" parent="1" vertex="1">
                    <mxGeometry x="-750" y="400" width="670" height="30" as="geometry"/>
                </mxCell>
                <mxCell id="25" style="edgeStyle=none;html=1;strokeColor=#FFFFFF;strokeWidth=5;fontSize=35;exitX=0.306;exitY=-0.343;exitDx=0;exitDy=0;exitPerimeter=0;" parent="1" source="24" target="6" edge="1">
                    <mxGeometry relative="1" as="geometry"/>
                </mxCell>
                <mxCell id="24" value="3: Executer toutes les commandes avec leurs redirections et/ou pipes" style="text;strokeColor=none;align=left;fillColor=none;html=1;verticalAlign=middle;whiteSpace=wrap;rounded=0;fontSize=35;" parent="1" vertex="1">
                    <mxGeometry x="-750" y="610" width="1140" height="30" as="geometry"/>
                </mxCell>
                <mxCell id="26" value="" style="whiteSpace=wrap;html=1;fillColor=#1ba1e2;fontColor=#ffffff;strokeColor=#006EAF;" parent="1" vertex="1">
                    <mxGeometry x="-800" y="710" width="1580" height="160" as="geometry"/>
                </mxCell>
                <mxCell id="27" value="" style="whiteSpace=wrap;html=1;fillColor=#0050ef;fontColor=#ffffff;strokeColor=#001DBC;" parent="1" vertex="1">
                    <mxGeometry x="-210" y="720" width="210" height="140" as="geometry"/>
                </mxCell>
                <mxCell id="29" value="&lt;font size=&quot;1&quot; style=&quot;&quot;&gt;&lt;b style=&quot;font-size: 33px;&quot;&gt;Rev&lt;/b&gt;&lt;/font&gt;" style="whiteSpace=wrap;html=1;fillColor=#6a00ff;fontColor=#ffffff;strokeColor=#3700CC;" parent="1" vertex="1">
                    <mxGeometry x="-200" y="730" width="190" height="120" as="geometry"/>
                </mxCell>
                <mxCell id="30" value="&lt;b&gt;&lt;font style=&quot;font-size: 33px;&quot;&gt;b&lt;/font&gt;&lt;/b&gt;" style="whiteSpace=wrap;html=1;fillColor=#6a00ff;fontColor=#ffffff;strokeColor=#3700CC;" parent="1" vertex="1">
                    <mxGeometry x="390" y="730" width="140" height="120" as="geometry"/>
                </mxCell>
                <mxCell id="32" value="" style="group" parent="1" vertex="1" connectable="0">
                    <mxGeometry x="-520" y="720" width="320" height="140" as="geometry"/>
                </mxCell>
                <mxCell id="33" value="" style="whiteSpace=wrap;html=1;fillColor=#0050ef;fontColor=#ffffff;strokeColor=#001DBC;" parent="32" vertex="1">
                    <mxGeometry x="-260" width="460" height="140" as="geometry"/>
                </mxCell>
                <mxCell id="34" value="&lt;b&gt;&lt;font style=&quot;font-size: 33px;&quot;&gt;&amp;nbsp;text.txt&lt;/font&gt;&lt;/b&gt;" style="whiteSpace=wrap;html=1;fillColor=#6a00ff;fontColor=#ffffff;strokeColor=#3700CC;" parent="32" vertex="1">
                    <mxGeometry x="50" y="10" width="140" height="120" as="geometry"/>
                </mxCell>
                <mxCell id="35" value="&lt;b&gt;&lt;font style=&quot;font-size: 33px;&quot;&gt;&amp;lt;&lt;/font&gt;&lt;/b&gt;" style="whiteSpace=wrap;html=1;fillColor=#60a917;fontColor=#ffffff;strokeColor=#2D7600;" parent="32" vertex="1">
                    <mxGeometry x="-50" y="30" width="70" height="80" as="geometry"/>
                </mxCell>
                <mxCell id="36" value="&lt;b&gt;&lt;font style=&quot;font-size: 60px;&quot;&gt;|&lt;/font&gt;&lt;/b&gt;" style="whiteSpace=wrap;html=1;fillColor=#d80073;fontColor=#ffffff;strokeColor=#A50040;" parent="1" vertex="1">
                    <mxGeometry x="-300" y="725" width="70" height="130" as="geometry"/>
                </mxCell>
                <mxCell id="38" value="&lt;b&gt;&lt;font style=&quot;font-size: 33px;&quot;&gt;&amp;gt;&lt;/font&gt;&lt;/b&gt;" style="whiteSpace=wrap;html=1;fillColor=#60a917;fontColor=#ffffff;strokeColor=#2D7600;" parent="1" vertex="1">
                    <mxGeometry x="30" y="750" width="70" height="80" as="geometry"/>
                </mxCell>
                <mxCell id="39" value="&lt;b&gt;&lt;font style=&quot;font-size: 34px;&quot;&gt;Cat&lt;/font&gt;&lt;/b&gt;" style="whiteSpace=wrap;html=1;fillColor=#6a00ff;fontColor=#ffffff;strokeColor=#3700CC;" parent="1" vertex="1">
                    <mxGeometry x="-760" y="730" width="140" height="120" as="geometry"/>
                </mxCell>
                <mxCell id="40" value="&lt;b&gt;&lt;font style=&quot;font-size: 33px;&quot;&gt;a&lt;/font&gt;&lt;/b&gt;" style="whiteSpace=wrap;html=1;fillColor=#6a00ff;fontColor=#ffffff;strokeColor=#3700CC;" parent="1" vertex="1">
                    <mxGeometry x="120" y="730" width="140" height="120" as="geometry"/>
                </mxCell>
                <mxCell id="41" value="&lt;b&gt;&lt;font style=&quot;font-size: 33px;&quot;&gt;&amp;gt;&lt;/font&gt;&lt;/b&gt;" style="whiteSpace=wrap;html=1;fillColor=#60a917;fontColor=#ffffff;strokeColor=#2D7600;" parent="1" vertex="1">
                    <mxGeometry x="290" y="750" width="70" height="80" as="geometry"/>
                </mxCell>
                <mxCell id="42" value="&lt;b&gt;&lt;font style=&quot;font-size: 33px;&quot;&gt;&amp;gt;&lt;/font&gt;&lt;/b&gt;" style="whiteSpace=wrap;html=1;fillColor=#60a917;fontColor=#ffffff;strokeColor=#2D7600;" parent="1" vertex="1">
                    <mxGeometry x="540" y="750" width="70" height="80" as="geometry"/>
                </mxCell>
                <mxCell id="43" value="&lt;b&gt;&lt;font style=&quot;font-size: 33px;&quot;&gt;c&lt;/font&gt;&lt;/b&gt;" style="whiteSpace=wrap;html=1;fillColor=#6a00ff;fontColor=#ffffff;strokeColor=#3700CC;" parent="1" vertex="1">
                    <mxGeometry x="620" y="730" width="140" height="120" as="geometry"/>
                </mxCell>
                <mxCell id="44" value="&lt;font style=&quot;font-size: 35px;&quot;&gt;Gestion des multiples redirections&lt;/font&gt;" style="text;strokeColor=none;align=center;fillColor=none;html=1;verticalAlign=middle;whiteSpace=wrap;rounded=0;fontSize=60;" parent="1" vertex="1">
                    <mxGeometry x="-740" y="660" width="1500" height="30" as="geometry"/>
                </mxCell>
                <mxCell id="45" value="a sera cree, b aussi, c aussi mais seulement c sera le stdout de &quot;Rev&quot;" style="text;strokeColor=none;align=left;fillColor=none;html=1;verticalAlign=middle;whiteSpace=wrap;rounded=0;fontSize=35;" parent="1" vertex="1">
                    <mxGeometry x="-570" y="880" width="1140" height="30" as="geometry"/>
                </mxCell>
                <mxCell id="46" value="" style="whiteSpace=wrap;html=1;fillColor=#1ba1e2;fontColor=#ffffff;strokeColor=#006EAF;" parent="1" vertex="1">
                    <mxGeometry x="-800" y="1100" width="1170" height="160" as="geometry"/>
                </mxCell>
                <mxCell id="47" value="" style="whiteSpace=wrap;html=1;fillColor=#0050ef;fontColor=#ffffff;strokeColor=#001DBC;" parent="1" vertex="1">
                    <mxGeometry x="30" y="1110" width="320" height="140" as="geometry"/>
                </mxCell>
                <mxCell id="49" value="&lt;font size=&quot;1&quot; style=&quot;&quot;&gt;&lt;b style=&quot;font-size: 33px;&quot;&gt;Rev&lt;/b&gt;&lt;/font&gt;" style="whiteSpace=wrap;html=1;fillColor=#6a00ff;fontColor=#ffffff;strokeColor=#3700CC;" parent="1" vertex="1">
                    <mxGeometry x="40" y="1120" width="300" height="120" as="geometry"/>
                </mxCell>
                <mxCell id="56" value="&lt;b&gt;&lt;font style=&quot;font-size: 60px;&quot;&gt;|&lt;/font&gt;&lt;/b&gt;" style="whiteSpace=wrap;html=1;fillColor=#d80073;fontColor=#ffffff;strokeColor=#A50040;" parent="1" vertex="1">
                    <mxGeometry x="-70" y="1115" width="70" height="130" as="geometry"/>
                </mxCell>
                <mxCell id="60" value="&lt;font style=&quot;font-size: 35px;&quot;&gt;Cas de redirections avant une pipe&lt;/font&gt;" style="text;strokeColor=none;align=center;fillColor=none;html=1;verticalAlign=middle;whiteSpace=wrap;rounded=0;fontSize=60;" parent="1" vertex="1">
                    <mxGeometry x="-800" y="1050" width="1500" height="30" as="geometry"/>
                </mxCell>
                <mxCell id="53" value="" style="whiteSpace=wrap;html=1;fillColor=#0050ef;fontColor=#ffffff;strokeColor=#001DBC;" parent="1" vertex="1">
                    <mxGeometry x="-780" y="1110" width="690" height="140" as="geometry"/>
                </mxCell>
                <mxCell id="54" value="&lt;b&gt;&lt;font style=&quot;font-size: 33px;&quot;&gt;&amp;nbsp;text.txt&lt;/font&gt;&lt;/b&gt;" style="whiteSpace=wrap;html=1;fillColor=#6a00ff;fontColor=#ffffff;strokeColor=#3700CC;" parent="1" vertex="1">
                    <mxGeometry x="-520" y="1120" width="140" height="120" as="geometry"/>
                </mxCell>
                <mxCell id="55" value="&lt;b&gt;&lt;font style=&quot;font-size: 33px;&quot;&gt;&amp;lt;&lt;/font&gt;&lt;/b&gt;" style="whiteSpace=wrap;html=1;fillColor=#60a917;fontColor=#ffffff;strokeColor=#2D7600;" parent="1" vertex="1">
                    <mxGeometry x="-610" y="1140" width="70" height="80" as="geometry"/>
                </mxCell>
                <mxCell id="59" value="&lt;b&gt;&lt;font style=&quot;font-size: 34px;&quot;&gt;Cat&lt;/font&gt;&lt;/b&gt;" style="whiteSpace=wrap;html=1;fillColor=#6a00ff;fontColor=#ffffff;strokeColor=#3700CC;" parent="1" vertex="1">
                    <mxGeometry x="-770" y="1120" width="140" height="120" as="geometry"/>
                </mxCell>
                <mxCell id="61" value="&lt;b&gt;&lt;font style=&quot;font-size: 33px;&quot;&gt;&amp;gt;&lt;/font&gt;&lt;/b&gt;" style="whiteSpace=wrap;html=1;fillColor=#60a917;fontColor=#ffffff;strokeColor=#2D7600;" parent="1" vertex="1">
                    <mxGeometry x="-350" y="1140" width="70" height="80" as="geometry"/>
                </mxCell>
                <mxCell id="62" value="&lt;b&gt;&lt;font style=&quot;font-size: 33px;&quot;&gt;a.txt&lt;/font&gt;&lt;/b&gt;" style="whiteSpace=wrap;html=1;fillColor=#6a00ff;fontColor=#ffffff;strokeColor=#3700CC;" parent="1" vertex="1">
                    <mxGeometry x="-260" y="1120" width="140" height="120" as="geometry"/>
                </mxCell>
                <mxCell id="63" value="Rev ne recevra aucune entree car la sortie de Cat est a.txt, rev s'executera à vide car son entree sera close" style="text;strokeColor=none;align=center;fillColor=none;html=1;verticalAlign=middle;whiteSpace=wrap;rounded=0;fontSize=35;" parent="1" vertex="1">
                    <mxGeometry x="-780" y="1290" width="1750" height="30" as="geometry"/>
                </mxCell>
                <mxCell id="64" value="&lt;i&gt;minishell&amp;gt;&lt;/i&gt; &lt;font color=&quot;#2986ff&quot;&gt;echo&lt;/font&gt; &lt;font color=&quot;#ffff00&quot;&gt;&quot;Coucou echo titi | &quot;&lt;/font&gt; &lt;font color=&quot;#ff0080&quot;&gt;|&lt;/font&gt; &lt;font color=&quot;#3399ff&quot;&gt;rev&lt;/font&gt;" style="whiteSpace=wrap;html=1;fontSize=35;" parent="1" vertex="1">
                    <mxGeometry x="1050" y="130" width="1790" height="160" as="geometry"/>
                </mxCell>
                <mxCell id="66" value="&lt;font style=&quot;font-size: 24px;&quot;&gt;1er mot, toujours une commande,&lt;br&gt;on tente d'access le chemin, si pas possible on check le PATH&lt;br&gt;&lt;br&gt;Tous les mots ensuite seront les arguments de la commande jusqu'au pipe.&lt;br&gt;&lt;br&gt;&lt;/font&gt;" style="text;strokeColor=none;align=center;fillColor=none;html=1;verticalAlign=middle;whiteSpace=wrap;rounded=0;" parent="1" vertex="1">
                    <mxGeometry x="1020" y="290" width="860" height="190" as="geometry"/>
                </mxCell>
                <mxCell id="68" value="&lt;font style=&quot;font-size: 24px;&quot;&gt;.&lt;br&gt;&lt;br&gt;&lt;/font&gt;" style="text;strokeColor=none;align=center;fillColor=none;html=1;verticalAlign=middle;whiteSpace=wrap;rounded=0;" parent="1" vertex="1">
                    <mxGeometry x="1980" y="290" width="860" height="190" as="geometry"/>
                </mxCell>
                <mxCell id="73" style="edgeStyle=none;html=1;entryX=0;entryY=0.5;entryDx=0;entryDy=0;fontSize=24;" parent="1" source="69" target="71" edge="1">
                    <mxGeometry relative="1" as="geometry"/>
                </mxCell>
                <mxCell id="74" style="edgeStyle=none;html=1;entryX=0;entryY=0.75;entryDx=0;entryDy=0;fontSize=24;" parent="1" source="69" target="70" edge="1">
                    <mxGeometry relative="1" as="geometry"/>
                </mxCell>
                <mxCell id="75" style="edgeStyle=none;html=1;entryX=0;entryY=0.5;entryDx=0;entryDy=0;fontSize=24;" parent="1" source="76" target="72" edge="1">
                    <mxGeometry relative="1" as="geometry"/>
                </mxCell>
                <mxCell id="82" style="edgeStyle=none;html=1;entryX=0;entryY=0.5;entryDx=0;entryDy=0;fontSize=24;" parent="1" source="69" target="81" edge="1">
                    <mxGeometry relative="1" as="geometry"/>
                </mxCell>
                <mxCell id="69" value="INPUT CLI" style="whiteSpace=wrap;html=1;fontSize=24;" parent="1" vertex="1">
                    <mxGeometry x="1710" y="1440" width="420" height="60" as="geometry"/>
                </mxCell>
                <mxCell id="70" value="Historique" style="whiteSpace=wrap;html=1;fontSize=24;" parent="1" vertex="1">
                    <mxGeometry x="2240" y="1340" width="120" height="60" as="geometry"/>
                </mxCell>
                <mxCell id="71" value="Signaux" style="whiteSpace=wrap;html=1;fontSize=24;" parent="1" vertex="1">
                    <mxGeometry x="2240" y="1440" width="120" height="60" as="geometry"/>
                </mxCell>
                <mxCell id="72" value="Les variables speciales&lt;br&gt;$?" style="whiteSpace=wrap;html=1;fontSize=24;" parent="1" vertex="1">
                    <mxGeometry x="2240" y="1260" width="260" height="60" as="geometry"/>
                </mxCell>
                <mxCell id="80" style="edgeStyle=none;html=1;fontSize=24;" parent="1" source="76" target="79" edge="1">
                    <mxGeometry relative="1" as="geometry"/>
                </mxCell>
                <mxCell id="84" style="edgeStyle=none;html=1;entryX=0;entryY=0.5;entryDx=0;entryDy=0;fontSize=24;" parent="1" source="76" target="83" edge="1">
                    <mxGeometry relative="1" as="geometry"/>
                </mxCell>
                <mxCell id="86" style="edgeStyle=none;html=1;entryX=0;entryY=0.5;entryDx=0;entryDy=0;fontSize=24;" parent="1" source="76" target="85" edge="1">
                    <mxGeometry relative="1" as="geometry"/>
                </mxCell>
                <mxCell id="88" style="edgeStyle=none;html=1;entryX=0;entryY=0.5;entryDx=0;entryDy=0;fontSize=24;" parent="1" source="76" target="87" edge="1">
                    <mxGeometry relative="1" as="geometry"/>
                </mxCell>
                <mxCell id="76" value="Execution" style="whiteSpace=wrap;html=1;fontSize=24;" parent="1" vertex="1">
                    <mxGeometry x="1700" y="1170" width="420" height="60" as="geometry"/>
                </mxCell>
                <mxCell id="79" value="Redirections" style="whiteSpace=wrap;html=1;fontSize=24;" parent="1" vertex="1">
                    <mxGeometry x="2240" y="1160" width="240" height="60" as="geometry"/>
                </mxCell>
                <mxCell id="81" value="Sexynesse" style="whiteSpace=wrap;html=1;fontSize=24;" parent="1" vertex="1">
                    <mxGeometry x="2240" y="1540" width="120" height="60" as="geometry"/>
                </mxCell>
                <mxCell id="83" value="Gestion d'erreur" style="whiteSpace=wrap;html=1;fontSize=24;" parent="1" vertex="1">
                    <mxGeometry x="2240" y="1060" width="240" height="60" as="geometry"/>
                </mxCell>
                <mxCell id="85" value="Gestion des pipes" style="whiteSpace=wrap;html=1;fontSize=24;" parent="1" vertex="1">
                    <mxGeometry x="2240" y="970" width="240" height="60" as="geometry"/>
                </mxCell>
                <mxCell id="87" value="Execve" style="whiteSpace=wrap;html=1;fontSize=24;" parent="1" vertex="1">
                    <mxGeometry x="2240" y="880" width="240" height="60" as="geometry"/>
                </mxCell>
                <mxCell id="93" style="edgeStyle=none;html=1;entryX=0;entryY=0.5;entryDx=0;entryDy=0;fontSize=24;" parent="1" source="89" target="90" edge="1">
                    <mxGeometry relative="1" as="geometry"/>
                </mxCell>
                <mxCell id="94" style="edgeStyle=none;html=1;entryX=0;entryY=0.5;entryDx=0;entryDy=0;fontSize=24;" parent="1" source="89" target="91" edge="1">
                    <mxGeometry relative="1" as="geometry"/>
                </mxCell>
                <mxCell id="95" style="edgeStyle=none;html=1;entryX=0;entryY=0.5;entryDx=0;entryDy=0;fontSize=24;" parent="1" source="89" target="92" edge="1">
                    <mxGeometry relative="1" as="geometry"/>
                </mxCell>
                <mxCell id="98" style="edgeStyle=none;html=1;entryX=0;entryY=0.5;entryDx=0;entryDy=0;fontSize=24;" parent="1" source="89" target="96" edge="1">
                    <mxGeometry relative="1" as="geometry"/>
                </mxCell>
                <mxCell id="99" style="edgeStyle=none;html=1;entryX=0;entryY=0.5;entryDx=0;entryDy=0;fontSize=24;" parent="1" source="89" target="97" edge="1">
                    <mxGeometry relative="1" as="geometry"/>
                </mxCell>
                <mxCell id="89" value="Parsing" style="whiteSpace=wrap;html=1;fontSize=24;" parent="1" vertex="1">
                    <mxGeometry x="1700" y="1640" width="420" height="60" as="geometry"/>
                </mxCell>
                <mxCell id="90" value="Isoler en groupe a chaque pipes" style="whiteSpace=wrap;html=1;fontSize=24;" parent="1" vertex="1">
                    <mxGeometry x="2240" y="1640" width="250" height="60" as="geometry"/>
                </mxCell>
                <mxCell id="91" value="parser dans un char** la commande et ses args" style="whiteSpace=wrap;html=1;fontSize=24;" parent="1" vertex="1">
                    <mxGeometry x="2240" y="1740" width="250" height="80" as="geometry"/>
                </mxCell>
                <mxCell id="92" value="gerer les quotes et double quotes" style="whiteSpace=wrap;html=1;fontSize=24;" parent="1" vertex="1">
                    <mxGeometry x="2235" y="1840" width="250" height="60" as="geometry"/>
                </mxCell>
                <mxCell id="96" value="Separer les redirections" style="whiteSpace=wrap;html=1;fontSize=24;" parent="1" vertex="1">
                    <mxGeometry x="2235" y="1950" width="250" height="60" as="geometry"/>
                </mxCell>
                <mxCell id="97" value="Forger les args selon les variables $" style="whiteSpace=wrap;html=1;fontSize=24;" parent="1" vertex="1">
                    <mxGeometry x="2235" y="2050" width="250" height="60" as="geometry"/>
                </mxCell>
            </root>
        </mxGraphModel>
    </diagram>
</mxfile>